<?xml version="1.0" encoding="utf-8"?>
<!-- Generator: Adobe Illustrator 22.0.0, SVG Export Plug-In . SVG Version: 6.00 Build 0)  -->
<svg version="1.1" id="Layer_1" xmlns="http://www.w3.org/2000/svg" xmlns:xlink="http://www.w3.org/1999/xlink" x="0px" y="0px"
	 viewBox="0 0 3373.1 468.8" style="enable-background:new 0 0 3373.1 468.8;" xml:space="preserve">
<style type="text/css">
	.st0{fill:#CC2132;}
	.st1{fill:#FFFFFF;}
</style>
<g>
	<path d="M1058.4,22.9h391.3V125h-131.2v313.6h-128.9V125h-131.2V22.9z M1498.6,22.9h128.9v415.7h-128.9V22.9z M1684.3,297.3h123.1
		c2.6,20,8,31.4,16.1,41.8c13.2,16.8,32.1,25.1,56.6,25.1c18.3,0,32.4-4.3,42.4-12.8c9.9-8.5,14.9-18.4,14.9-29.9
		c0-10.8-4.8-20.5-14.3-29c-9.5-8.4-31.6-16.3-66.2-23.9c-56.7-12.7-97-29.6-121.2-50.7c-24.3-20.9-36.5-47.7-36.5-80.4
		c0-21.3,6.2-41.4,18.7-60.4c12.5-19,31.1-34,56.1-44.9c25-10.9,59.2-16.4,102.7-16.4c53.4,0,94,9.9,122.1,29.7
		c28,19.8,44.7,54.8,50,98H1927c-3.2-18.6-10-28.6-20.3-37.1c-10.3-8.6-24.5-12.8-42.7-12.8c-14.9,0-26.2,3.2-33.8,9.5
		c-7.5,6.4-11.3,14.1-11.3,23.2c0,6.5,3.1,12.3,9.3,17.6c6,5.5,20.4,10.7,43.2,15.4c56.5,12.2,96.9,24.4,121.3,36.7
		c24.4,12.3,42.2,27.7,53.3,46c11.1,18.4,16.7,38.9,16.7,61.3c0,26.7-7.4,51.3-22.2,73.7c-14.8,22.5-35.5,39.5-62,51
		c-26.6,11.5-60.1,17.3-100.5,17.3c-71,0-120.1-13.6-147.4-40.8C1703.3,377.6,1687.9,339.2,1684.3,297.3L1684.3,297.3z
		 M2090.8,297.3h123.1c2.7,20,8.1,31.4,16.2,41.8c13.2,16.8,32.1,25.1,56.6,25.1c18.3,0,32.4-4.3,42.4-12.8
		c9.9-8.5,14.9-18.4,14.9-29.9c0-10.8-4.7-20.5-14.3-29c-9.5-8.4-31.6-16.3-66.1-23.9c-56.7-12.7-97-29.6-121.2-50.7
		c-24.3-20.9-36.5-47.7-36.5-80.4c0-21.3,6.2-41.4,18.7-60.4c12.5-19,31.1-34,56.1-44.9c25-10.9,59.2-16.4,102.7-16.4
		c53.4,0,94.1,9.9,122.1,29.7c28,19.8,44.7,54.8,50,98h-121.9c-3.2-18.6-10-28.6-20.3-37.1c-10.3-8.6-24.5-12.8-42.6-12.8
		c-15,0-26.2,3.2-33.8,9.5c-7.5,6.4-11.3,14.1-11.3,23.2c0,6.5,3.1,12.3,9.3,17.6c6,5.5,20.4,10.7,43.2,15.4
		c56.5,12.2,96.9,24.4,121.3,36.7c24.4,12.3,42.2,27.7,53.3,46c11.1,18.4,16.7,38.9,16.7,61.3c0,26.7-7.4,51.3-22.2,73.7
		c-14.8,22.5-35.5,39.5-62.1,51c-26.5,11.5-60,17.3-100.5,17.3c-71,0-120.1-13.6-147.5-40.8C2109.9,377.6,2094.4,339.2,2090.8,297.3
		L2090.8,297.3z M2670.3,140.8c15.7-18.3,36.5-27.4,62.5-27.4c27.1,0,48.5,9,64.3,27c15.8,17.9,23.7,46.4,23.7,85.4
		c0,46.4-7.5,78.5-22.7,96.4c-15.2,18-36.6,27-64.2,27c-26.9,0-48.2-9.2-63.8-27.5c-15.7-18.3-23.4-48.4-23.4-90.2
		C2646.7,189.3,2654.5,159.1,2670.3,140.8z M2546.5,352.4c19.1,32.3,44.1,56,75,70.9c30.8,14.9,69.7,22.3,116.7,22.3
		c46.2,0,84.9-8.6,115.9-25.9c31-17.3,54.6-41.5,71.1-72.6c16.4-31.1,24.6-70.9,24.6-119.5c0-66.7-18.7-118.7-56.3-155.9
		c-37.5-37.1-91-55.8-160.4-55.8c-67.7,0-120.5,18.9-158.4,56.7c-37.9,37.7-56.9,90.6-56.9,158.5
		C2517.8,279.6,2527.3,320,2546.5,352.4L2546.5,352.4z M2946.5,22.9h391.3V125h-131.2v313.6h-128.9V125h-131.2L2946.5,22.9
		L2946.5,22.9z"/>
</g>
<g>
	<path d="M466.2,435.3H39.7V26.1h426.5V435.3z"/>
	<path class="st0" d="M951.8,435.3H525.3V26.1h426.5V435.3z"/>
	<path class="st1" d="M95.2,62.8h314.7v89.8H308.5v251.7h-112V152.6H95.2V62.8z M693.1,275.7H584.3v-89.3h108.8v-108h89.6v108H891
		v89.3H782.7v108.5h-89.6V275.7z"/>
</g>
</svg>
